<svg viewBox="-32 0 512 512.00036" xmlns="http://www.w3.org/2000/svg"><path d="m386.175781 156.757812c.03125.058594.066407.113282.101563.167969 1.0625 1.75.582031 4.023438-1.113282 5.171875l-67.820312 45.949219 17.148438 25.308594 67.820312-45.949219c1.695312-1.148438 3.984375-.75 5.214844.886719.039062.050781.078125.101562.117187.152343 5.566407 7.253907 15.839844 9.167969 23.652344 4.410157 8.867187-5.402344 11.324219-17.042969 5.570313-25.535157-4.457032-6.574218-10.472657-7.910156-15.492188-7.539062-2.847656.210938-4.84375-2.699219-3.613281-5.273438 2.183593-4.578124 3.195312-10.667968-1.128907-17.050781-5.753906-8.492187-17.472656-10.527343-25.773437-4.300781-7.320313 5.488281-9.355469 15.738281-4.683594 23.601562zm0 0" fill="#dfede7"/><path d="m211.894531 229.824219 16.765625 16.761719c6.644532 6.648437 16.835938 8.308593 25.183594 3.996093 16.730469-8.648437 34.753906-14.847656 53.476562-18.472656 13.050782-2.527344 25.515626-8.84375 35.625-18.953125 27.1875-27.191406 26.957032-71.421875-.703124-98.320312-27.066407-26.320313-70.769532-25.839844-97.277344 1.042968-9.917969 10.0625-16.121094 22.410156-18.613282 35.332032-3.605468 18.703124-9.800781 36.707031-18.445312 53.417968-4.320312 8.351563-2.65625 18.546875 3.988281 25.195313zm0 0" fill="#efa335"/><path d="m342.242188 114.835938c-7.613282-7.402344-16.539063-12.683594-26.03125-15.855469 8.078124 24.058593 2.558593 51.675781-16.605469 70.839843-10.105469 10.105469-22.570313 16.425782-35.625 18.953126-18.71875 3.625-36.742188 9.824218-53.472657 18.472656-1.367187.707031-2.789062 1.238281-4.234374 1.628906-1.988282 7.363281.066406 15.394531 5.621093 20.949219l16.765625 16.761719c6.644532 6.648437 16.835938 8.308593 25.183594 3.996093 16.730469-8.648437 34.753906-14.847656 53.476562-18.472656 13.050782-2.527344 25.515626-8.84375 35.621094-18.953125 27.191406-27.191406 26.957032-71.421875-.699218-98.320312zm0 0" fill="#fd8f31"/><path d="m35.230469 123.628906c.046875-.039062.089843-.078125.136719-.121094 1.40625-1.25 3.542968-1.191406 4.863281.152344l52.804687 53.757813 20.0625-19.707031-52.804687-53.757813c-1.320313-1.34375-1.339844-3.480469-.0625-4.867187.039062-.042969.078125-.085938.117187-.128907 5.644532-6.242187 5.675782-15.851562.074219-22.132812-6.355469-7.128907-17.292969-7.425781-24.027344-.8125-5.210937 5.121093-5.425781 10.785156-4.257812 15.269531.664062 2.539062-1.640625 4.828125-4.171875 4.140625-4.503906-1.21875-10.183594-1.125-15.242188 3.84375-6.734375 6.613281-6.632812 17.554687.375 24.035156 6.179688 5.710938 15.789063 5.855469 22.132813.328125zm0 0" fill="#dfede7"/><path d="m106.832031 152.667969-18.742187 18.410156c-7.433594 7.296875-9.375 18.578125-4.675782 27.875 9.414063 18.625 16.105469 38.660156 19.9375 59.445313 2.671876 14.488281 9.550782 28.363281 20.652344 39.667968 29.863282 30.402344 78.882813 30.582032 108.96875.199219 29.441406-29.734375 29.339844-78.171875-.191406-107.816406-11.050781-11.09375-24.671875-18.089844-38.96875-20.980469-20.691406-4.183594-40.585938-11.226562-59.019531-20.972656-9.210938-4.871094-20.527344-3.128906-27.960938 4.171875zm0 0" fill="#efa335"/><path d="m232.78125 190.449219c-11.050781-11.09375-24.671875-18.09375-38.96875-20.980469-20.691406-4.183594-40.585938-11.226562-59.019531-20.972656-9.210938-4.867188-20.527344-3.128906-27.960938 4.171875l-18.742187 18.410156c-1.550782 1.523437-2.84375 3.222656-3.90625 5.035156 21.628906 13.277344 45.621094 22.617188 70.808594 27.707031 27.378906 5.535157 52.285156 26.140626 61.390624 61.710938 2.28125 8.914062 2.328126 18.277344-.046874 27.167969-2.257813 8.441406-5.394532 16.027343-9.230469 22.757812 9.421875-3.78125 18.25-9.503906 25.863281-17.191406 29.441406-29.734375 29.34375-78.175781-.1875-107.816406zm0 0" fill="#fd8f31"/><path d="m210.222656 142.53125s19.21875-18.839844 42.585938-45.222656c23.367187-26.382813 26.882812-84.042969 20.351562-89.027344s-18.59375 26.089844-43.214844 58.753906c-6.984374 9.265625-17.773437 15.984375-29.335937 22.335938-2.320313 1.273437-5.109375-.527344-4.957031-3.171875.25-4.28125-.347656-9.070313-4.382813-8.539063-4.945312.652344-17.546875 17.945313-24.863281 28.566406-3.160156 4.59375-6.746094 8.867188-10.65625 12.84375-10.390625 10.5625-13.625 22.980469-8.714844 46.449219 13.566406 64.820313 73.363282 69.34375 125.121094 72.359375 51.753906 3.015625 77.914062-3.730468 77.914062-3.730468 0-83-139.847656-91.617188-139.847656-91.617188zm0 0" fill="#fccf3f"/><path d="m210.222656 142.53125s19.21875-18.839844 42.585938-45.222656c21.96875-24.800782 26.390625-77.246094 21.414062-87.578125-7.960937 27.453125-38.722656 88.523437-82.640625 111.695312-.3125.164063-.621093.332031-.929687.5-22.816406 12.371094-18.660156 46.378907 6.492187 52.792969 34.707031 8.851562 77.363281 27.035156 88.773438 63.761719 42.625 1.21875 64.152343-4.332031 64.152343-4.332031 0-83-139.847656-91.617188-139.847656-91.617188zm0 0" fill="#efc03c"/><path d="m64.496094 213.136719 42.589844 277.992187c1.15625 7.542969 7.648437 13.117188 15.28125 13.117188h217.480468c7.636719 0 14.125-5.574219 15.28125-13.117188l42.589844-277.992187zm0 0" fill="#fc4e51"/><path d="m338.785156 213.136719-42.589844 277.992187c-1.15625 7.542969-7.648437 13.117188-15.28125 13.117188h58.933594c7.636719 0 14.125-5.574219 15.28125-13.117188l42.589844-277.992187zm0 0" fill="#ea3942"/><g fill="#f3e8d7"><path d="m248.851562 504.246094h-35.488281l-6.136719-289.226563h47.765626zm0 0"/><path d="m177.875 504.246094h-35.488281l-30.691407-289.226563h47.765626zm0 0"/><path d="m319.828125 504.246094h-35.488281l18.414062-289.226563h47.765625zm0 0"/></g><path d="m338.785156 213.136719-42.589844 277.992187c-1.15625 7.542969-7.648437 13.117188-15.28125 13.117188h58.933594c7.636719 0 14.125-5.574219 15.28125-13.117188l42.589844-277.992187zm0 0" fill="#ea3942"/><path d="m319.828125 504.246094 30.691406-289.230469h-12.023437l-42.300782 276.113281c-.980468 6.371094-5.765624 11.324219-11.828124 12.710938l-.027344.402344h35.488281zm0 0" fill="#e5d8c6"/><path d="m400.453125 245.054688h-338.691406c-9.957031 0-18.027344-8.070313-18.027344-18.027344 0-9.957032 8.070313-18.027344 18.027344-18.027344h338.691406c9.957031 0 18.027344 8.070312 18.027344 18.027344 0 9.957031-8.070313 18.027344-18.027344 18.027344zm0 0" fill="#fc4e51"/><path d="m400.453125 209h-41.597656v36.054688h41.597656c9.957031 0 18.027344-8.070313 18.027344-18.027344 0-9.957032-8.070313-18.027344-18.027344-18.027344zm0 0" fill="#ea3942"/><path d="m378.660156 337.546875h-295.101562l7.382812 48.195313h280.332032zm0 0" fill="#f3e8d7"/><path d="m312.339844 385.742188h58.933594l7.386718-48.195313h-58.9375zm0 0" fill="#e5d8c6"/><path d="m297.578125 363.078125c0 36.710937-29.761719 66.46875-66.472656 66.46875-36.707031 0-66.46875-29.757813-66.46875-66.46875s29.761719-66.46875 66.46875-66.46875c36.710937 0 66.472656 29.757813 66.472656 66.46875zm0 0" fill="#efa335"/><path d="m251.890625 299.941406c2.152344 6.539063 3.335937 13.523438 3.335937 20.785156 0 36.710938-29.761718 66.46875-66.472656 66.46875-7.257812 0-14.242187-1.179687-20.785156-3.332031 8.730469 26.527344 33.691406 45.683594 63.136719 45.683594 36.714843 0 66.472656-29.757813 66.472656-66.46875 0-29.449219-19.160156-54.410156-45.6875-63.136719zm0 0" fill="#fd8f31"/><path d="m443.285156 162.96875c-4.082031-6.023438-9.828125-9.707031-16.546875-10.71875 1.546875-6.625.300781-13.261719-3.6875-19.144531-3.9375-5.8125-10.167969-9.8125-17.09375-10.972657-7.027343-1.175781-14.042969.535157-19.75 4.816407-9.597656 7.195312-12.851562 19.855469-8.261719 30.671875l-7.148437 4.839844c-.480469-19.449219-8.253906-38.699219-23.144531-53.183594-8.886719-8.640625-19.875-15.050782-31.773438-18.527344-4.117187-1.203125-8.417968 1.15625-9.621094 5.265625-1.203124 4.113281 1.15625 8.417969 5.269532 9.621094 9.476562 2.773437 18.230468 7.875 25.308594 14.761719 17.921874 17.425781 22.964843 43.503906 14.535156 65.742187-.019532.054687-.042969.109375-.0625.164063-.253906.65625-.519532 1.3125-.796875 1.964843-.074219.175781-.148438.351563-.226563.527344-.257812.601563-.53125 1.199219-.8125 1.796875-.058594.121094-.113281.25-.175781.371094-.328125.6875-.675781 1.363281-1.03125 2.039062-.101563.195313-.210937.390625-.316406.582032-.277344.515624-.566407 1.023437-.859375 1.53125-.0625.105468-.125.210937-.1875.320312-1.960938-3.152344-4.148438-6.144531-6.527344-8.980469-.015625-.015625-.03125-.035156-.046875-.054687-1.613281-1.917969-3.3125-3.765625-5.089844-5.546875-.058593-.054688-.113281-.113281-.167969-.167969-25.988281-25.894531-68.449218-37.371094-96.445312-42.324219 2.945312-6.285156 6.964844-12.070312 11.859375-17.039062 7.902344-8.015625 17.875-13.675781 28.828125-16.371094 4.160156-1.023437 6.703125-5.222656 5.679688-9.382813-1.023438-4.15625-5.222657-6.695312-9.382813-5.679687-3.453125.851563-6.828125 1.9375-10.101563 3.242187 15.492188-24.757812 19.558594-60.988281 17.984376-77.152343-.695313-7.144531-2.429688-11.421875-5.628907-13.863281-2.351562-1.792969-5.234375-2.476563-8.125-1.9375-7.144531 1.351562-12.023437 9.402343-21.75 25.4375-6.347656 10.472656-14.25 23.5-24.238281 36.75-4.792969 6.363281-11.855469 11.523437-20.878906 16.816406-.648438-2.683594-1.84375-4.816406-3.597656-6.445313-2.398438-2.230469-5.597657-3.214843-9.015626-2.765625-3.414062.449219-9.128906 1.203125-30.238281 31.855469-2.804687 4.070313-6.101562 8.042969-9.800781 11.804687-7.671875 7.800782-11.855469 16.480469-12.894531 27.484376-9.335938-4.488282-20.042969-4.066407-28.878907.796874l-40.027343-40.753906c5.949219-9.066406 5.222656-21.164062-2.207031-29.496094-4.484376-5.03125-10.660157-7.925781-17.382813-8.148437-6.621094-.226563-13.136719 2.320313-17.867187 6.964844-4.734376 4.648437-7.179688 10.375-7.15625 16.546875-6.191407-.164063-11.886719 2.160156-16.519532 6.707031-4.726562 4.644531-7.3828122 11.109375-7.28124975 17.738281.09765575 6.722656 2.87890575 12.945313 7.82812475 17.523438 8.203125 7.585937 20.296875 8.53125 29.460938 2.742187l40.019531 40.746094c-5.003906 8.714844-5.640625 19.367187-1.371094 28.761719h-14.179687c-14.21875 0-25.78125 11.566406-25.78125 25.78125 0 14.21875 11.5625 25.785156 25.78125 25.785156h.96875l36.691406 239.492188c1.75 11.414062 11.398437 19.695312 22.941406 19.695312h217.484375c11.546875 0 21.195313-8.28125 22.945313-19.695312l36.691406-239.492188h.96875c14.214844 0 25.78125-11.566406 25.78125-25.785156 0-14.214844-11.566406-25.78125-25.78125-25.78125h-4.742187l8.074218-5.46875c8.300782 8.253906 21.289063 9.949218 31.542969 3.703125 6.101563-3.71875 10.292969-9.597657 11.804687-16.558594 1.496094-6.867187.089844-14.136719-3.847656-19.953125zm-282.007812-38.464844c4.332031-4.398437 8.203125-9.070312 11.515625-13.878906 7.074219-10.273438 12.207031-16.816406 15.660156-20.742188.796875 2.421876 2.414063 4.539063 4.632813 5.941407 3.410156 2.152343 7.722656 2.28125 11.257812.339843 13.679688-7.511718 24.320312-14.550781 31.792969-24.464843 10.460937-13.871094 18.585937-27.273438 25.117187-38.042969 2.351563-3.878906 4.855469-8.007812 7.070313-11.417969.078125 17.097657-5.332031 51.875-21.320313 69.925781-22.890625 25.847657-42.019531 44.640626-42.207031 44.828126-2.1875 2.144531-2.90625 5.375-1.835937 8.246093 1.066406 2.871094 3.726562 4.839844 6.78125 5.03125.179687.011719 11.824218.773438 28.125 3.78125.109374.023438.21875.042969.328124.0625.390626.074219.789063.148438 1.183594.226563 19.03125 3.640625 45.582032 10.65625 66.9375 23.648437.136719.085938.273438.167969.410156.253907.414063.253906.828126.511718 1.238282.773437 11.542968 7.328125 19.15625 15.046875 24.160156 22.226563h-158.855469c-1.796875-1.847657-3.476562-3.792969-5.035156-5.84375-.035156-.046876-.066406-.089844-.101563-.136719-.488281-.644531-.964843-1.300781-1.429687-1.96875-.109375-.152344-.210937-.3125-.316406-.46875-.386719-.5625-.765625-1.132813-1.136719-1.707031-.136719-.214844-.265625-.429688-.402344-.644532-.328125-.53125-.65625-1.066406-.972656-1.609375-.148438-.25-.289062-.503906-.433594-.757812-.296875-.515625-.585937-1.035157-.867187-1.566407-.148438-.277343-.296875-.5625-.441407-.84375-.265624-.511718-.527343-1.03125-.78125-1.558593-.148437-.300781-.292968-.605469-.4375-.910157-.242187-.519531-.480468-1.039062-.710937-1.566406-.140625-.320312-.28125-.644531-.421875-.96875-.222656-.527344-.4375-1.058594-.652344-1.589844-.132812-.339843-.269531-.675781-.398437-1.019531-.207031-.539062-.402344-1.082031-.601563-1.628906-.125-.347656-.25-.695313-.371094-1.046875-.191406-.558594-.375-1.125-.558593-1.695312-.113281-.351563-.230469-.703126-.339844-1.054688-.179687-.59375-.351563-1.195312-.523437-1.800781-.101563-.34375-.203126-.683594-.296876-1.03125-.179687-.664063-.351562-1.339844-.519531-2.015625-.074219-.300782-.15625-.589844-.226562-.890625-.234375-.980469-.460938-1.976563-.671875-2.988281-.1875-.90625-.363282-1.789063-.527344-2.664063-.039062-.210937-.074219-.417969-.113281-.625-.140625-.761719-.269531-1.511719-.386719-2.246094-.019531-.113281-.039062-.230469-.058594-.34375-.121094-.769531-.226562-1.519531-.328125-2.257812-.039062-.316407-.078125-.625-.117187-.933594-.050782-.40625-.09375-.800781-.136719-1.195313-1.640625-15.234374 2.015625-22.742187 8.324219-29.160156zm-49.277344 33.957032.25-.242188.484375-.4375c.03125-.027344.058594-.058594.085937-.085938 5.070313-4.554687 12.34375-5.515624 18.347657-2.34375 2.226562 1.175782 4.5 2.328126 6.792969 3.441407.175781 1.21875.378906 2.46875.601562 3.75 0 .003906 0 .007812.003906.011719.257813 1.472656.546875 2.984374.875 4.554687.308594 1.46875.648438 2.914063 1.007813 4.339844.101562.417969.214843.828125.320312 1.242187.277344 1.054688.566407 2.097656.871094 3.128906.121094.402344.238281.808594.359375 1.207032.414062 1.347656.84375 2.675781 1.304688 3.980468.007812.027344.015624.054688.027343.078126.472657 1.347656.984375 2.667968 1.507813 3.972656.136718.339844.28125.671875.421875 1.007812.414062.996094.84375 1.972656 1.285156 2.941406.15625.332032.304687.667969.460937 1 .582032 1.230469 1.179688 2.441407 1.808594 3.628907.003906.007812.007813.015625.011719.019531.652344 1.226562 1.335937 2.429688 2.039063 3.609375.152343.253906.308593.503906.460937.753906.566406.933594 1.152344 1.851563 1.753906 2.757813.101563.152344.195313.316406.300781.46875h-60.230468c-.921875-1.96875-1.867188-3.90625-2.820313-5.792969-3.0625-6.058594-1.964843-13.3125 2.675781-18.296875.03125-.035156.066407-.0625.101563-.097656zm-66.238281-40.234376c-2.203125-2.242187-5.117188-3.375-8.039063-3.375-2.675781 0-5.355468.945313-7.5 2.855469-.007812.007813-.078125.070313-.085937.074219-3.34375 2.914062-8.515625 2.839844-11.773438-.175781-1.800781-1.664063-2.816406-3.929688-2.851562-6.367188-.035157-2.441406.902343-4.730469 2.644531-6.441406 2.234375-2.195313 4.566406-2.761719 7.785156-1.890625 3.832032 1.035156 7.953125-.050781 10.765625-2.835938 2.8125-2.785156 3.9375-6.90625 2.933594-10.746093-.816406-3.144531-.164063-5.46875 2.191406-7.78125 1.742188-1.710938 4.050781-2.609375 6.484375-2.527344 2.441406.082031 4.6875 1.136719 6.320313 2.96875 2.953125 3.3125 2.933593 8.484375-.03125 11.765625l-.074219.082031c-4.085938 4.429688-3.988281 11.261719.230469 15.554688l41.769531 42.527343-7.007812 6.886719-1.988282 1.953125zm32.660156 134.582032h29.484375l8.171875 76.980468h-25.863281zm19.175781 125.179687-5.007812-32.6875h66.460937c-1.40625 5.699219-2.167969 11.648438-2.167969 17.777344 0 5.105469.519532 10.089844 1.503907 14.910156h-28.582031c-.007813 0-.019532 0-.027344 0zm25.90625-125.179687h30.589844l4.902344 76.980468h-27.324219zm25.859375 243.683594-3.242187-30.550782c-.449219-4.253906-4.25-7.34375-8.53125-6.890625-4.257813.453125-7.34375 4.269531-6.890625 8.53125l3.066406 28.910157h-11.398437c-3.832032 0-7.035157-2.75-7.613282-6.539063l-14.777344-96.457031h22.863282l4.039062 38.074218c.421875 3.980469 3.785156 6.9375 7.703125 6.9375.273438 0 .546875-.011718.824219-.042968 4.261719-.453125 7.347656-4.269532 6.894531-8.53125l-3.867187-36.4375h24.621094l6.558593 102.996094zm35.789063 0-5.066406-79.582032c6.882812 6.527344 15.011718 11.75 23.992187 15.273438l1.363281 64.308594zm56.109375 0h-20.304688l-1.277343-60.070313c3.726562.578125 7.542968.882813 11.425781.882813 3.886719 0 7.703125-.304688 11.429687-.882813zm35.800781 0h-20.289062l1.363281-64.308594c8.980469-3.523438 17.109375-8.746094 23.992187-15.277344zm-45.957031-74.699219c-32.375 0-58.714844-26.339844-58.714844-58.714844 0-32.378906 26.339844-58.71875 58.714844-58.71875 32.378906 0 58.71875 26.339844 58.71875 58.71875 0 32.375-26.339844 58.714844-58.71875 58.714844zm-61.46875-168.984375h30.632812l.902344 42.371094c-10.742187 4.753906-20.152344 11.972656-27.503906 20.945312zm46.148437 0h30.648438l-.796875 37.480468c-4.699219-.9375-9.554688-1.4375-14.527344-1.4375s-9.828125.5-14.527344 1.4375zm72.761719 63.316406c-7.351563-8.972656-16.761719-16.191406-27.5-20.945312l.898437-42.371094h30.632813zm24.304687 180.367188h-20.246093l6.558593-102.996094h24.617188zm34.613282-6.539063c-.582032 3.789063-3.785156 6.539063-7.617188 6.539063h-11.398437l10.929687-102.996094h22.863282zm17.152344-111.964844h-60.789063c.984375-4.820312 1.503906-9.804687 1.503906-14.910156 0-6.128906-.761719-12.078125-2.167969-17.777344h66.460938zm-61.398438-48.199219 4.902344-76.980468h30.589844l-8.167969 76.980468zm68.78125 0h-25.863281l8.171875-76.980468h29.488281zm28.453125-113.035156c5.664063 0 10.273437 4.609375 10.273437 10.273438 0 5.664062-4.609374 10.273437-10.273437 10.273437h-338.691406c-5.664063 0-10.273438-4.609375-10.273438-10.273437 0-5.664063 4.609375-10.273438 10.273438-10.273438zm31.527344-37.128906c-.605469 2.773438-2.28125 5.121094-4.71875 6.609375-4.410157 2.683594-10.324219 1.582031-13.46875-2.511719-.011719-.015625-.058594-.074218-.070313-.089844-3.722656-4.949218-10.644531-6.109374-15.761718-2.644531l-29.898438 20.257813h-6.617188c.441407-.804688.867188-1.621094 1.277344-2.4375.089844-.183594.175782-.363282.261719-.542969.410156-.835937.808594-1.679687 1.1875-2.53125.089844-.199219.179687-.398437.265625-.597656 1.765625-4.03125 3.195312-8.21875 4.246094-12.507813l20.828125-14.113281c5.117187-3.464844 6.605469-10.328125 3.410156-15.578125l-.082031-.140625c-2.636719-4.4375-1.464844-10.339844 2.667968-13.4375 2.285157-1.714844 5.085938-2.398437 7.886719-1.933594 2.800781.472657 5.222657 2.023438 6.816407 4.375 2.035156 3.007813 2.207031 5.894531.550781 9.363281-1.753907 3.671876-1.421875 8.039063.867187 11.394532 2.296875 3.355468 6.261719 5.261718 10.316406 4.953125 3.75-.273438 6.363282 1.007812 8.5 4.15625 1.59375 2.351562 2.136719 5.179687 1.535157 7.957031zm0 0"/></svg>